<svg xmlns="http://www.w3.org/2000/svg" xmlns:xlink="http://www.w3.org/1999/xlink" id="Capa_1" width="1000" height="1000" x="0" y="0" enable-background="new 0 0 1000 1000" version="1.1" viewBox="0 0 1000 1000" xml:space="preserve"><g><path fill="none" stroke="#000" stroke-linecap="round" stroke-linejoin="round" stroke-miterlimit="10" stroke-width="35" d="M950.885,372.979c-7.382-5.479-16.926-7.132-25.723-4.468l-159.55,48.344l-103.823-81.4c-8.94-7.011-21.146-8.157-31.241-2.95 L41.452,636.765c-0.855,0.437-1.676,0.921-2.473,1.437c-0.248,0.158-0.481,0.336-0.721,0.502c-0.507,0.349-1.006,0.702-1.487,1.08 c-0.321,0.257-0.627,0.524-0.937,0.79c-0.368,0.317-0.732,0.631-1.081,0.964c-0.333,0.314-0.65,0.644-0.964,0.968 c-0.298,0.314-0.592,0.632-0.879,0.957c-0.31,0.355-0.612,0.712-0.902,1.084c-0.263,0.333-0.515,0.674-0.767,1.019 c-0.271,0.371-0.539,0.746-0.79,1.135c-0.248,0.378-0.477,0.766-0.709,1.16c-0.212,0.365-0.433,0.729-0.631,1.1 c-0.248,0.469-0.472,0.948-0.693,1.432c-0.143,0.314-0.302,0.624-0.437,0.945c-0.271,0.643-0.507,1.302-0.732,1.967 c-0.058,0.175-0.132,0.342-0.186,0.52c-0.542,1.708-0.93,3.476-1.146,5.284c-0.039,0.317-0.046,0.636-0.077,0.952 c-0.051,0.565-0.101,1.131-0.117,1.699c-0.016,0.462,0.004,0.922,0.016,1.379c0.008,0.43,0.008,0.859,0.035,1.294 c0.035,0.522,0.097,1.041,0.159,1.563c0.035,0.283,0.042,0.565,0.085,0.848c0.016,0.105,0.042,0.201,0.058,0.306 c0.081,0.5,0.186,0.991,0.291,1.491c0.093,0.43,0.182,0.855,0.294,1.281c0.108,0.418,0.236,0.833,0.364,1.246 c0.159,0.512,0.325,1.019,0.511,1.515c0.124,0.337,0.255,0.67,0.391,0.999c0.241,0.584,0.503,1.157,0.782,1.719 c0.082,0.171,0.147,0.344,0.232,0.511c0.039,0.078,0.093,0.139,0.131,0.218c0.574,1.083,1.204,2.124,1.901,3.119 c0.135,0.197,0.283,0.379,0.426,0.569c0.608,0.825,1.258,1.614,1.947,2.365c0.163,0.179,0.313,0.364,0.476,0.534 c0.767,0.798,1.587,1.538,2.439,2.238c0.263,0.218,0.53,0.426,0.797,0.631c0.841,0.646,1.704,1.259,2.614,1.808 c0.073,0.043,0.143,0.098,0.216,0.145c0.987,0.588,2.021,1.095,3.078,1.563c0.24,0.108,0.48,0.209,0.724,0.31 c1.08,0.445,2.18,0.849,3.318,1.161c0.019,0.005,0.034,0.009,0.054,0.013c1.081,0.294,2.192,0.511,3.314,0.682 c0.306,0.046,0.615,0.089,0.925,0.128c1.046,0.123,2.099,0.204,3.171,0.212c0.096,0,0.193,0.019,0.29,0.019 c0.042,0,0.085-0.007,0.128-0.007h878.689c16.035,0,29.037-12.997,29.037-29.037V396.301 C962.624,387.11,958.269,378.461,950.885,372.979z M640.634,392.662l57.09,44.759L349.946,542.793L640.634,392.662z M904.551,633.543H250.713L768.07,476.791c0.221-0.065,0.441-0.128,0.658-0.201l135.818-41.151v198.104H904.551z"/></g></svg>