<?xml version="1.0" encoding="utf-8"?>
<!-- Generator: Adobe Illustrator 16.0.0, SVG Export Plug-In . SVG Version: 6.00 Build 0)  -->
<!DOCTYPE svg PUBLIC "-//W3C//DTD SVG 1.1//EN" "http://www.w3.org/Graphics/SVG/1.1/DTD/svg11.dtd">
<svg version="1.1" xmlns="http://www.w3.org/2000/svg" xmlns:xlink="http://www.w3.org/1999/xlink" x="0px" y="0px" width="1000px"
	 height="1000px" viewBox="0 0 1000 1000" enable-background="new 0 0 1000 1000" xml:space="preserve">
<g id="Layer_1">
	<g>
		<g>
			<path fill="none" d="M1112.362,881.528c0.024,12.769-2.634,15.316-16.079,15.28c-200.191-0.527-400.384-0.363-600.575-0.363
				c-200.192,0-400.384-0.164-600.574,0.363c-13.445,0.036-16.105-2.51-16.081-15.28 M526.338,713.727
				c101.396,0,202.793,0.344,304.188-0.111c73.432-0.328,136.951-61.447,135.359-130.838
				c-1.679-73.206-67.812-128.216-134.859-126.676c-67.991,1.566-136.058,0.34-204.09,0.328c-78.5-0.015-157-0.328-235.497,0.047
				c-45.921,0.223-86.422,32.559-91.659,71.947c-8.299,62.395,32.509,106.663,98.873,106.816
				c80.462,0.186,160.926,0.083,241.387,0.04c26.675-0.016,38.474-6.637,38.991-21.523c0.542-15.688-11.77-22.942-39.483-22.957
				c-80.462-0.048-160.925-0.026-241.387,0.007c-11.876,0.004-23.451-0.375-33.568-7.771
				c-17.609-12.874-25.304-33.005-18.923-50.915c6.853-19.236,24.564-31.043,48.319-31.064
				c144.57-0.128,289.141-0.124,433.711-0.019c50.646,0.04,90.846,37.179,91.166,83.765c0.314,45.547-40.896,84.077-91.494,84.14
				c-201.479,0.243-402.961,0.359-604.441-0.062C153.6,668.73,99.045,616.009,99.253,551.291
				c0.209-64.925,54.694-116.824,123.529-117.458c28.781-0.262,57.579,0.346,86.346-0.316c22.421-0.517,32.443-10.015,33.574-30.631
				c0.788-14.381,3.617-28.384,7.533-42.175c23.935-84.292,118.247-138.908,206.652-119.854
				c73.812,15.907,127.09,70.424,139.208,142.447c3.711,22.055,14.479,32.084,32.121,29.921
				c14.162-1.733,23.766-15.783,21.736-32.692c-15.839-132.155-150.926-224.139-294.099-184.83
				c-90.878,24.95-144.689,85.953-163.03,174.029c-3.089,14.836-9.479,20.084-24.533,19.535
				c-17.635-0.641-35.333-0.518-52.977,0.058C113.506,392.65,36.177,484.47,55.012,579.421
				c15.481,78.05,85.138,133.795,169.104,134.185C324.854,714.065,425.598,713.713,526.338,713.727z"/>
			<path fill="none" stroke="#F7A5AE" stroke-width="16" stroke-miterlimit="10" d="M187.561,713.613
				c-73.431-0.328-136.95-61.447-135.359-130.838c1.678-73.206,67.811-128.217,134.859-126.676
				c67.991,1.566,136.058,0.339,204.091,0.328c78.499-0.015,157-0.328,235.497,0.047c45.92,0.223,86.421,32.558,91.658,71.947
				c8.299,62.393-32.509,106.663-98.873,106.816c-80.462,0.186-160.926,0.083-241.387,0.04
				c-26.675-0.015-38.473-6.636-38.991-21.523c-0.542-15.688,11.769-22.942,39.483-22.957c80.462-0.048,160.926-0.026,241.387,0.007
				c11.876,0.004,23.45-0.375,33.568-7.771c17.609-12.874,25.304-33.005,18.923-50.915c-6.852-19.236-24.563-31.043-48.319-31.064
				c-144.569-0.128-289.141-0.124-433.711-0.019c-50.646,0.04-90.846,37.179-91.166,83.765
				c-0.314,45.547,40.896,84.077,91.494,84.139c201.479,0.244,402.961,0.36,604.441-0.062
				c69.33-0.15,123.885-52.871,123.677-117.589c-0.209-64.925-54.694-116.824-123.528-117.458
				c-28.781-0.261-57.58,0.347-86.347-0.316c-22.421-0.517-32.443-10.015-33.574-30.631c-0.788-14.381-3.617-28.383-7.533-42.175
				c-23.935-84.292-118.247-138.908-206.652-119.854c-73.812,15.907-127.089,70.424-139.208,142.447
				c-3.71,22.055-14.479,32.084-32.121,29.921c-14.162-1.733-23.764-15.783-21.736-32.692
				c15.839-132.155,150.926-224.139,294.1-184.83c90.879,24.95,144.688,85.953,163.029,174.029
				c3.09,14.837,9.479,20.085,24.533,19.535c17.637-0.641,35.334-0.518,52.977,0.058c101.808,3.325,179.138,95.144,160.303,190.096
				c-15.481,78.05-85.139,133.795-169.104,134.185c-100.741,0.463-201.483,0.109-302.224,0.116
				C390.351,713.727,288.953,714.069,187.561,713.613z"/>
		</g>
	</g>
</g>
<g id="Layer_2">
</g>
</svg>
