<?xml version="1.0" encoding="utf-8"***REMOVED***
<!-- Generator: Adobe Illustrator 16.0.0, SVG Export Plug-In . SVG Version: 6.00 Build 0)  -->
<!DOCTYPE svg PUBLIC "-//W3C//DTD SVG 1.1//EN" "http://www.w3.org/Graphics/SVG/1.1/DTD/svg11.dtd">
<svg version="1.1" id="Layer_1" xmlns="http://www.w3.org/2000/svg" xmlns:xlink="http://www.w3.org/1999/xlink" x="0px" y="0px"
	 width="325px" height="314px" viewBox="0 0 325 314" enable-background="new 0 0 325 314" xml:space="preserve">
<g transform="translate(0.000000,314.000000) scale(0.100000,-0.100000)">
	<path fill="none" stroke="#000000" stroke-width="5" stroke-miterlimit="10" d="M1875,2935c50-8.999,137.002-32.002,195-51.001
		c477.002-160,835.996-575,925.996-1073.999c23.008-127.002,23.008-352.998,0-480C2892.998,757.998,2442.002,307.002,1870,204.004
		c-127.002-23.008-352.998-23.008-480,0C817.998,307.002,367.002,757.998,263.999,1330c-22.998,127.002-22.998,352.998,0,480
		C386.001,2487.998,991.001,2978.999,1670,2955C1732.998,2952.002,1825.996,2942.998,1875,2935z"/>
	<path fill="none" stroke="#000000" stroke-width="5" stroke-miterlimit="10" d="M1478.999,2551.001
		C1345,2507.998,1210,2392.002,1151.001,2267.002c-50-104.004-61.001-171.001-61.001-369.004V1720h-75h-75v-475
		c0-522.002,0-519.004,60-550c43.999-22.998,1215.996-22.998,1260,0c60,30.996,60,27.998,60,550v475h-75h-75v177.998
		c0,122.002-5,197.002-15,241.001c-45.996,196.001-200,361.001-384.004,415C1697.002,2576.001,1551.001,2573.999,1478.999,2551.001z
		 M1777.998,2355c60-32.998,121.006-95,151.006-153.999c40-78.003,50.996-146.001,50.996-318.003V1720h-350h-350v162.998
		c0,219.004,22.998,305,106.001,397.002c72.998,81.001,146.997,112.002,258.999,107.002
		C1710.996,2383.999,1735,2378.999,1777.998,2355z M1665,1345.996c64.004-26.992,77.002-107.998,25-155.996
		c-27.002-25-30-34.004-30-89.004V1040h-30h-30v60.996c0,55-2.998,64.004-30,89.004c-51.001,47.998-38.999,127.998,22.998,155
		C1599.179,1347.783,1662.754,1346.894,1665,1345.996z"/>
</g>
</svg>
